<?xml version="1.0" encoding="utf-8"?>

<svg viewBox="3.172 1.203 500 500" xmlns="http://www.w3.org/2000/svg" width="113" height="100" fill="none">
  <path d="M 13.272 196.871 C 13.272 172.206 32.301 152.213 55.774 152.213 L 126.614 152.213 C 129.743 152.213 132.28 154.878 132.28 158.166 L 132.28 158.166 C 132.28 223.939 81.536 277.258 18.938 277.258 L 18.938 277.258 C 15.808 277.258 13.272 274.592 13.272 271.3 L 13.272 196.871 Z" fill="#1D4ED8" style=""/>
  <path d="M 47.273 232.598 C 47.273 207.935 66.302 187.939 89.777 187.939 L 160.617 187.939 C 163.745 187.939 166.283 190.605 166.283 193.892 L 166.283 193.892 C 166.283 259.666 115.538 312.984 52.939 312.984 L 52.939 312.984 C 49.811 312.984 47.273 310.318 47.273 307.027 L 47.273 232.598 Z" fill="#2563EB" style="filter: none;"/>
  <text style="fill: rgb(51, 51, 51); font-family: Arial, sans-serif; font-size: 25px; font-weight: 700; letter-spacing: -0.1px; stroke-width: 0px; text-transform: capitalize; white-space: pre;" x="264.428" y="206.52" transform="matrix(4.250317, 0, 0, 4.465889, -924.913635, -635.740295)">Dauth</text>
</svg>